<?xml version="1.0" encoding="UTF-8" standalone="no"?><!-- Generator: Gravit.io --><svg xmlns="http://www.w3.org/2000/svg" xmlns:xlink="http://www.w3.org/1999/xlink" style="isolation:isolate" viewBox="0 0 800 800" width="800pt" height="800pt"><defs><clipPath id="_clipPath_EAVSxJnhb7LExM72eCJBhWauA6BnYQlk"><rect width="800" height="800"/></clipPath></defs><g clip-path="url(#_clipPath_EAVSxJnhb7LExM72eCJBhWauA6BnYQlk)"><linearGradient id="_lgradient_1" x1="0.13056786104995882" y1="0.1102514147566882" x2="0.854195648356991" y2="0.9678843478613196" gradientTransform="matrix(794,0,0,794,3,3)" gradientUnits="userSpaceOnUse"><stop offset="0%" stop-opacity="1" style="stop-color:rgb(0,0,0)"/><stop offset="98.26086956521739%" stop-opacity="1" style="stop-color:rgb(0,0,0)"/></linearGradient><circle vector-effect="non-scaling-stroke" cx="400" cy="400" r="397" fill="url(#_lgradient_1)"/><path d=" M 526.205 283.845 L 763.759 385.054 L 763.759 387.677 L 742.259 433.037 L 526.205 525.07 L 504.704 479.709 L 504.704 477.087 L 684.05 404.457 L 504.704 331.828 L 504.704 329.206 L 526.205 283.845 Z " fill="rgb(255,255,255)"/><path d=" M 315.742 634.671 L 313.12 634.671 L 276.149 616.841 L 486.435 165.329 L 489.057 165.329 L 526.29 183.159 L 315.742 634.671 Z " fill="rgb(255,255,0)"/><path d=" M 273.795 525.07 L 36.241 423.86 L 36.241 421.238 L 57.741 375.877 L 273.795 283.845 L 295.296 329.206 L 295.296 331.828 L 115.95 404.457 L 295.296 477.087 L 295.296 479.709 L 273.795 525.07 Z " fill="rgb(255,255,255)"/></g></svg>